<?xml version="1.0" standalone="no"?><!DOCTYPE svg PUBLIC "-//W3C//DTD SVG 1.1//EN" "http://www.w3.org/Graphics/SVG/1.1/DTD/svg11.dtd"><svg t="1554077894481" class="icon" style="" viewBox="0 0 1024 1024" version="1.1" xmlns="http://www.w3.org/2000/svg" p-id="4128" xmlns:xlink="http://www.w3.org/1999/xlink" width="200" height="200"><defs><style type="text/css"></style></defs><path d="M282.666667 460.586667c61.44 120.746667 160.213333 219.52 281.173333 280.96l93.866667-94.08c11.733333-11.733333 28.586667-15.146667 43.306667-10.453333 47.786667 15.786667 99.2 24.32 152.32 24.32 23.68 0 42.666667 18.986667 42.666667 42.666667l0 149.333333c0 23.68-18.986667 42.666667-42.666667 42.666667-400.64 0-725.333333-324.693333-725.333333-725.333333 0-23.68 19.2-42.666667 42.666667-42.666667l149.333333 0c23.68 0 42.666667 18.986667 42.666667 42.666667 0 53.12 8.533333 104.533333 24.32 152.32 4.693333 14.72 1.28 31.573333-10.453333 43.306667l-93.866667 94.293333z" p-id="4129" data-spm-anchor-id="a313x.7781069.0.i10" class="selected" fill="#3881FF"></path></svg>