<?xml version="1.0" standalone="no"?><!DOCTYPE svg PUBLIC "-//W3C//DTD SVG 1.1//EN" "http://www.w3.org/Graphics/SVG/1.1/DTD/svg11.dtd"><svg t="1554078197454" class="icon" style="" viewBox="0 0 1024 1024" version="1.1" xmlns="http://www.w3.org/2000/svg" p-id="7829" xmlns:xlink="http://www.w3.org/1999/xlink" width="200" height="200"><defs><style type="text/css"></style></defs><path d="M512 140.2v372.3H140.3v-0.5c0-205.3 166.4-371.8 371.7-371.8z" fill="#3881FF" p-id="7830" data-spm-anchor-id="a313x.7781069.0.i23" class="selected"></path><path d="M532 532.5H120.3V512c0-52.9 10.4-104.2 30.8-152.5 19.7-46.7 48-88.6 83.9-124.5 36-36 77.9-64.2 124.5-84 48.3-20.4 99.6-30.8 152.5-30.8h20v412.3z m-371.2-40H492V160.7c-178.2 10.1-321.4 153.5-331.2 331.8z" fill="#3881FF" p-id="7831" data-spm-anchor-id="a313x.7781069.0.i25" class="selected"></path><path d="M904.3 532.2H492V120.5h20.5c52.9 0 104.2 10.4 152.5 30.8 46.7 19.7 88.6 48 124.5 83.9 36 36 64.2 77.9 84 124.5 20.4 48.3 30.8 99.6 30.8 152.5v20z m-372.3-40h331.8C853.7 314 710.3 170.8 532 161v331.2z" fill="#3881FF" p-id="7832" data-spm-anchor-id="a313x.7781069.0.i27" class="selected"></path><path d="M512.3 884.1V511.8H884v0.5c0 205.3-166.4 371.8-371.7 371.8z" fill="#3881FF" p-id="7833" data-spm-anchor-id="a313x.7781069.0.i22" class="selected"></path><path d="M492.3 904.2V491.8H904v20.5c0 52.9-10.4 104.2-30.8 152.5-19.7 46.7-48 88.6-83.9 124.5-36 36-77.9 64.2-124.5 84-48.3 20.4-99.6 30.8-152.5 30.8l-20 0.1z m40-372.4v331.8c178.2-10.1 321.4-153.5 331.2-331.8H532.3z" fill="#3881FF" p-id="7834" data-spm-anchor-id="a313x.7781069.0.i26" class="selected"></path><path d="M532.3 903.8h-20.5c-52.9 0-104.2-10.4-152.5-30.8-46.7-19.7-88.6-48-124.5-83.9-36-36-64.2-77.9-84-124.5C130.4 616.3 120 565 120 512.1v-20h412.3v411.7zM160.5 532.1C170.6 710.3 314 853.5 492.3 863.3V532.1H160.5z" fill="#3881FF" p-id="7835" data-spm-anchor-id="a313x.7781069.0.i24" class="selected"></path><path d="M127.791 491.806l0.421 39.996-63.994 0.674-0.42-39.996zM492 63.9h40v76.5h-40zM884.048 492.315l76.2 0.173-0.091 40-76.2-0.173zM531.783 883.732l0.5 75.7-40 0.264-0.5-75.7z" fill="#3881FF" p-id="7836" data-spm-anchor-id="a313x.7781069.0.i28" class="selected"></path></svg>