<?xml version="1.0" standalone="no"?><!DOCTYPE svg PUBLIC "-//W3C//DTD SVG 1.1//EN" "http://www.w3.org/Graphics/SVG/1.1/DTD/svg11.dtd"><svg t="1554078275204" class="icon" style="" viewBox="0 0 1024 1024" version="1.1" xmlns="http://www.w3.org/2000/svg" p-id="8624" xmlns:xlink="http://www.w3.org/1999/xlink" width="200" height="200"><defs><style type="text/css"></style></defs><path d="M547.333 465.506l0-201.27c-10.283-0.967-20.303-2.109-28.74-3.516l0 0-1.406 0c0 0.088-0.352 0.352-0.703 0.352-10.987 1.406-24.521 3.164-39.815 4.57l0 199.864-414.668 0 0-160.313c0-25.224 20.215-45.44 45.528-45.44l188.965 0c-50.713-10.635-88.857-32.344-90.175-72.422-1.494-47.286 51.768-123.575 129.638-106.172 80.332 18.018 136.494 80.156 179.472 133.418 43.33-54.317 104.854-124.19 188.614-135.263 70.049-8.877 127.969 61.084 120.498 107.227-6.328 40.43-45.175 62.49-94.57 73.125l186.504 0c25.224 0 45.527 20.214 45.527 45.44l0 160.401-414.668 0zM344.48 122.996c-38.76-15.293-61.435 1.143-77.783 28.037-8.877 15.205-18.457 35.508-4.307 50.362 37.266 38.32 139.57 35.508 208.213 28.388-32.344-40.342-72.158-85.43-126.123-106.787l0 0zM768.377 201.219c26.631-34.102-25.576-105.117-81.739-78.838-53.701 25.224-92.373 66.357-125.771 106.875 28.74 2.549 57.92 3.164 86.661 1.758 35.244-1.494 100.195-3.955 120.849-29.795l0 0zM479.48 945.388l-337.94 0c-22.763 0-41.221-18.457-41.221-41.484l0-405.967 379.161 0 0 447.451zM923.592 903.904c0 23.115-18.457 41.484-41.221 41.484l-337.852 0 0-447.451 379.072 0 0 405.967zM923.592 903.904z" p-id="8625" data-spm-anchor-id="a313x.7781069.0.i30" class="selected" fill="#3881FF"></path></svg>