<?xml version="1.0" standalone="no"?><!DOCTYPE svg PUBLIC "-//W3C//DTD SVG 1.1//EN" "http://www.w3.org/Graphics/SVG/1.1/DTD/svg11.dtd"><svg t="1553866081839" class="icon" style="" viewBox="0 0 1024 1024" version="1.1" xmlns="http://www.w3.org/2000/svg" p-id="5017" xmlns:xlink="http://www.w3.org/1999/xlink" width="200" height="200"><defs><style type="text/css"></style></defs><path d="M159.670857 528.676571 682.325333 0l35.693714 0 0 35.693714L195.413333 564.370286 159.670857 564.370286 159.670857 528.676571 159.670857 528.676571zM159.670857 528.676571" p-id="5018" data-spm-anchor-id="a313x.7781069.0.i26" class="selected" fill="#f4ea2a"></path><path d="M152.161524 1024 141.848381 1024 68.120381 766.756571 68.120381 1024 4.193524 1024 4.193524 605.354667l18.553905 0 45.372952 0 7.241143 0 76.8 270.701714L152.161524 605.354667l63.902476 0L216.064 1024 194.462476 1024 152.161524 1024 152.161524 1024zM152.161524 1024" p-id="5019" data-spm-anchor-id="a313x.7781069.0.i23" class="selected" fill="#f4ea2a"></path><path d="M425.910857 788.894476l0 70.119619-84.016762 0 0 94.890667 131.462095 0L473.35619 1024l-201.581714 0L271.774476 605.354667l201.581714 0 0 70.144-131.462095 0 0 113.39581L425.910857 788.894476 425.910857 788.894476zM425.910857 788.894476" p-id="5020" data-spm-anchor-id="a313x.7781069.0.i22" class="selected" fill="#f4ea2a"></path><path d="M664.088381 785.798095l25.33181 110.32381 19.553524-290.791619 55.198476 0L736.304762 1024l-17.554286 0-37.64419 0L678.034286 1024l-37.083429-153.648762-41.22819 151.576381L600.185905 1024l-1.024 0-40.740571 0-13.409524 0-31.963429-418.645333 55.149714 0 22.186667 293.912381 29.915429-113.444571L664.088381 785.822476 664.088381 785.798095zM664.088381 785.798095" p-id="5021" data-spm-anchor-id="a313x.7781069.0.i24" class="selected" fill="#f4ea2a"></path><path d="M781.287619 895.804952l49.249524-3.267048c4.87619 25.33181 9.386667 40.131048 21.820952 54.393905 12.409905 14.287238 29.744762 21.430857 52.028952 21.430857 22.454857 0 39.131429-6.339048 50.005333-18.968381 10.849524-12.678095 16.286476-27.526095 16.286476-44.568381 0-15.286857-4.803048-27.306667-14.409143-36.059429-6.680381-6.022095-23.332571-13.677714-49.980952-22.942476-35.888762-12.507429-60.708571-23.332571-74.581333-32.49981-13.848381-9.142857-24.356571-21.820952-31.524571-37.985524-7.143619-16.14019-10.727619-34.03581-10.727619-53.540571 0-17.798095 2.925714-34.255238 8.825905-49.42019 5.87581-15.164952 13.897143-27.769905 24.039619-37.790476 7.631238-7.753143 17.968762-14.336 31.085714-19.748571 13.141333-5.38819 27.209143-8.070095 42.25219-8.070095 22.625524 0 42.520381 4.510476 59.611429 13.531429 17.115429 9.020952 29.769143 21.23581 37.912381 36.668952 8.167619 15.408762 13.750857 36.035048 16.847238 61.805714l-48.932571 0.975238c-2.194286-20.528762-7.363048-28.525714-17.773714-40.057905-10.410667-11.53219-25.112381-17.286095-44.153905-17.286095-22.454857 0-38.473143 5.144381-48.079238 15.384381-9.630476 10.288762-14.409143 22.308571-14.409143 36.10819 0 8.752762 1.974857 16.65219 5.948952 23.673905 3.998476 7.265524 10.24 13.287619 18.797714 18.041905 4.85181 2.511238 19.260952 8.289524 43.178667 17.286095 34.596571 12.775619 58.758095 23.259429 72.43581 31.378286 13.677714 8.143238 24.380952 19.992381 32.182857 35.523048 7.777524 15.555048 11.678476 34.840381 11.678476 57.904762 0 22.552381-4.754286 43.78819-14.262857 63.707429-9.508571 19.894857-23.210667 35.303619-41.155048 46.226286C947.565714 1018.538667 927.256381 1024 904.630857 1024c-37.473524 0-66.072381-10.752-85.723429-32.304762C799.256381 970.118095 786.724571 938.154667 781.287619 895.804952z" p-id="5022" data-spm-anchor-id="a313x.7781069.0.i25" class="selected" fill="#f4ea2a"></path></svg>