<?xml version="1.0" standalone="no"?><!DOCTYPE svg PUBLIC "-//W3C//DTD SVG 1.1//EN" "http://www.w3.org/Graphics/SVG/1.1/DTD/svg11.dtd"><svg t="1553865524951" class="icon" style="" viewBox="0 0 1025 1024" version="1.1" xmlns="http://www.w3.org/2000/svg" p-id="2646" xmlns:xlink="http://www.w3.org/1999/xlink" width="200.1953125" height="200"><defs><style type="text/css"></style></defs><path d="M1024 486.4C1011.2 224 787.2 6.4 524.8 0 422.4 0 326.4 25.6 236.8 76.8L192 19.2 128 160C121.6 179.2 134.4 198.4 153.6 198.4l153.6-12.8L268.8 121.6c64-38.4 140.8-64 217.6-70.4l0 32c0 12.8 12.8 25.6 25.6 25.6s25.6-12.8 25.6-25.6L537.6 51.2C768 64 960 256 972.8 486.4l-25.6 0c-12.8 0-25.6 12.8-25.6 25.6 0 12.8 12.8 25.6 25.6 25.6l25.6 0C960 774.4 768 960 537.6 972.8l0-25.6c0-12.8-12.8-25.6-25.6-25.6s-25.6 12.8-25.6 25.6l0 25.6C256 960 64 774.4 51.2 537.6l25.6 0c12.8 0 25.6-12.8 25.6-25.6 0-12.8-12.8-25.6-25.6-25.6L51.2 486.4c0-19.2 0-38.4 6.4-51.2 0-12.8-6.4-25.6-19.2-32-12.8 0-25.6 6.4-32 19.2C0 454.4 0 480 0 512c0 0 0 0 0 0 0 0 0 0 0 0 0 0 0 0 0 0 0 281.6 230.4 512 512 512C800 1024 1036.8 780.8 1024 486.4z" p-id="2647"></path><path d="M499.2 588.8c19.2 6.4 38.4-6.4 38.4-25.6L537.6 281.6C537.6 268.8 524.8 256 512 256S486.4 268.8 486.4 281.6l0 243.2L307.2 428.8c-12.8-6.4-25.6 0-32 12.8-6.4 12.8 0 25.6 12.8 32L499.2 588.8z" p-id="2648"></path></svg>