<?xml version="1.0" standalone="no"?><!DOCTYPE svg PUBLIC "-//W3C//DTD SVG 1.1//EN" "http://www.w3.org/Graphics/SVG/1.1/DTD/svg11.dtd"><svg t="1553865856202" class="icon" style="" viewBox="0 0 1024 1024" version="1.1" xmlns="http://www.w3.org/2000/svg" p-id="3970" xmlns:xlink="http://www.w3.org/1999/xlink" width="200" height="200"><defs><style type="text/css"></style></defs><path d="M512 128C349.013333 128 218.666667 256.64 218.666667 413.141333c0 117.674667 73.557333 220.757333 137.514666 265.045334a42.666667 42.666667 0 0 1-2.474666 71.722666l-141.354667 84.096A85.333333 85.333333 0 0 0 170.666667 907.349333V981.333333a42.666667 42.666667 0 1 1-85.333334 0v-73.984a170.666667 170.666667 0 0 1 83.413334-146.688l90.112-53.589333c-66.304-66.730667-125.525333-172.885333-125.525334-293.973333C133.333333 207.573333 303.872 42.666667 512 42.666667s378.666667 164.864 378.666667 370.474666c0 121.045333-59.221333 227.2-125.525334 293.930667l90.112 53.589333A170.666667 170.666667 0 0 1 938.666667 907.349333V981.333333a42.666667 42.666667 0 0 1-42.666667 42.666667H307.2a42.666667 42.666667 0 1 1 0-85.333333H853.333333v-31.317334a85.333333 85.333333 0 0 0-41.685333-73.344l-141.354667-84.053333a42.666667 42.666667 0 0 1-2.474666-71.765333c64-44.288 137.514667-147.370667 137.514666-265.045334C805.333333 256.64 674.986667 128 512 128z m174.08 292.48a42.666667 42.666667 0 0 1 16.938667 57.941333l-37.418667-20.48 37.418667 20.48-0.042667 0.085334-0.042667 0.085333-0.128 0.213333-0.298666 0.512a65.408 65.408 0 0 1-3.2 5.162667c-1.962667 3.029333-4.778667 6.997333-8.448 11.52a194.730667 194.730667 0 0 1-33.408 32.426667c-30.805333 23.594667-77.824 45.909333-144.384 47.573333-67.712 1.706667-116.906667-20.949333-149.248-45.098667a210.773333 210.773333 0 0 1-35.541334-33.408 168.704 168.704 0 0 1-12.501333-17.066666l-0.298667-0.426667-0.128-0.256-0.042666-0.085333c-0.042667-0.042667-0.042667-0.085333 36.693333-21.76l-36.736 21.674666a42.666667 42.666667 0 1 1 73.984-42.666666c0.810667 1.194667 2.304 3.242667 4.437333 5.802666 4.352 5.205333 11.306667 12.458667 21.12 19.754667 19.157333 14.293333 49.962667 29.354667 96.128 28.202667 47.274667-1.152 77.098667-16.554667 94.634667-29.994667a109.653333 109.653333 0 0 0 18.773333-18.090667 65.834667 65.834667 0 0 0 4.138667-5.717333 42.666667 42.666667 0 0 1 57.6-16.384z" fill="#f4ea2a" p-id="3971" data-spm-anchor-id="a313x.7781069.0.i19" class="selected"></path></svg>